<svg width="365" height="344" viewBox="0 0 365 344" fill="none" xmlns="http://www.w3.org/2000/svg">
<path d="M4 0.999999H364V343H4V0.999999Z" fill="var(--primary)"/>
<path d="M364.5 266C354.323 266 344.245 268.005 334.842 271.899C325.439 275.794 316.896 281.503 309.699 288.699C302.503 295.896 296.794 304.439 292.899 313.842C289.005 323.245 287 333.323 287 343.5H364.5V266Z" fill="white"/>
<path d="M364.5 78C354.323 78 344.245 75.9954 334.842 72.1007C325.439 68.2059 316.896 62.4973 309.699 55.3008C302.503 48.1042 296.794 39.5607 292.899 30.1579C289.005 20.7552 287 10.6774 287 0.499973L364.5 0.499999V78Z" fill="white"/>
<path d="M81 0.499999C81 10.6774 78.9954 20.7552 75.1007 30.158C71.2059 39.5607 65.4973 48.1042 58.3008 55.3008C51.1042 62.4973 42.5607 68.2059 33.158 72.1007C23.7552 75.9954 13.6774 78 3.5 78L3.5 0.499999H81Z" fill="white"/>
<path d="M81 343.5C81 333.1 78.9068 322.806 74.845 313.232C70.7832 303.658 64.836 294.999 57.3576 287.772C49.8792 280.545 41.0226 274.896 31.3154 271.164C21.6083 267.431 11.2491 265.69 0.855114 266.045L3.5 343.5H81Z" fill="white"/>
<path d="M3.5 94C24.0543 94 43.7667 102.165 58.3008 116.699C72.8348 131.233 81 150.946 81 171.5C81 192.054 72.8349 211.767 58.3008 226.301C43.7668 240.835 24.0544 249 3.50012 249L3.5 94Z" fill="white"/>
<path d="M261 0.499999C261 10.6774 258.995 20.7552 255.101 30.158C251.206 39.5607 245.497 48.1042 238.301 55.3008C231.104 62.4973 222.561 68.2059 213.158 72.1007C203.755 75.9954 193.677 78 183.5 78C173.323 78 163.245 75.9954 153.842 72.1007C144.439 68.2059 135.896 62.4973 128.699 55.3008C121.503 48.1042 115.794 39.5607 111.899 30.158C108.005 20.7552 106 10.6774 106 0.499992L261 0.499999Z" fill="white"/>
<path d="M364.5 249C343.946 249 324.233 240.835 309.699 226.301C295.165 211.767 287 192.054 287 171.5C287 150.946 295.165 131.233 309.699 116.699C324.233 102.165 343.946 94 364.5 94L364.5 249Z" fill="white"/>
<path d="M261 343.5C261 333.323 258.995 323.245 255.101 313.842C251.206 304.439 245.497 295.896 238.301 288.699C231.104 281.503 222.561 275.794 213.158 271.899C203.755 268.005 193.677 266 183.5 266C173.323 266 163.245 268.005 153.842 271.899C144.439 275.794 135.896 281.503 128.699 288.699C121.503 295.896 115.794 304.439 111.899 313.842C108.005 323.245 106 333.323 106 343.5H261Z" fill="white"/>
</svg>
