<svg width="362" height="344" viewBox="0 0 362 344" fill="none" xmlns="http://www.w3.org/2000/svg">
<path id="cool" d="M1.00003 1H361V343H1.00003V1Z" fill="var(--primary)"/>
<path d="M0.500027 94C10.6775 94 20.7553 96.0046 30.158 99.8993C39.5607 103.794 48.1043 109.503 55.3008 116.699C62.4973 123.896 68.206 132.439 72.1007 141.842C75.9954 151.245 78 161.323 78 171.5C78 181.677 75.9954 191.755 72.1007 201.158C68.2059 210.561 62.4973 219.104 55.3008 226.301C48.1042 233.497 39.5607 239.206 30.158 243.101C20.7552 246.995 10.6774 249 0.5 249L0.500027 94Z" fill="white"/>
<path d="M258 343.5C258 322.946 249.835 303.233 235.301 288.699C220.767 274.165 201.054 266 180.5 266C159.946 266 140.233 274.165 125.699 288.699C111.165 303.233 103 322.946 103 343.5H258Z" fill="white"/>
<path d="M258 0.5C258 21.0543 249.835 40.7667 235.301 55.3008C220.767 69.8348 201.054 78 180.5 78C159.946 78 140.233 69.8348 125.699 55.3008C111.165 40.7667 103 21.0543 103 0.500012L258 0.5Z" fill="white"/>
<path d="M361.5 94C340.946 94 321.233 102.165 306.699 116.699C292.165 131.233 284 150.946 284 171.5C284 192.054 292.165 211.767 306.699 226.301C321.233 240.835 340.946 249 361.5 249L361.5 94Z" fill="white"/>
</svg>
