<svg width="290" height="290" viewBox="0 0 290 290" fill="none" xmlns="http://www.w3.org/2000/svg">
<path d="M145 217.5C185.041 217.5 217.5 185.041 217.5 145C217.5 104.959 185.041 72.5 145 72.5C104.959 72.5 72.5 104.959 72.5 145C72.5 185.041 104.959 217.5 145 217.5Z" fill="white"/>
<path d="M145 217.5C104.959 217.5 72.5 249.959 72.5 290H217.5C217.5 249.959 185.041 217.5 145 217.5Z" fill="white"/>
<path d="M217.5 0C217.5 40.0406 249.959 72.5 290 72.5V0H217.5Z" fill="white"/>
<path d="M0 72.5C40.0406 72.5 72.5 40.0406 72.5 0H0V72.5Z" fill="white"/>
<path d="M290 72.5C249.959 72.5 217.5 40.0406 217.5 0H72.5C72.5 40.0406 40.0406 72.5 0 72.5V290H72.5C72.5 249.959 104.959 217.5 145 217.5C104.959 217.5 72.5 185.041 72.5 145C72.5 104.959 104.959 72.5 145 72.5C185.041 72.5 217.5 104.959 217.5 145C217.5 185.041 185.041 217.5 145 217.5C185.041 217.5 217.5 249.959 217.5 290H290V72.5Z" fill="none"/>
</svg>
