<svg width="363" height="344" viewBox="0 0 363 344" fill="none" xmlns="http://www.w3.org/2000/svg">
<path d="M2 0.999999H362V343H2V0.999999Z" fill="var(--primary)"/>
<path d="M259 171.5C259 214.302 224.302 249 181.5 249C138.698 249 104 214.302 104 171.5C104 128.698 138.698 94 181.5 94C224.302 94 259 128.698 259 171.5Z" fill="white"/>
<path d="M362.5 266C352.323 266 342.245 268.005 332.842 271.899C323.439 275.794 314.896 281.503 307.699 288.699C300.503 295.896 294.794 304.439 290.899 313.842C287.005 323.245 285 333.323 285 343.5H362.5V266Z" fill="white"/>
<path d="M78 343.5C78 333.323 75.9954 323.245 72.1007 313.842C68.2059 304.439 62.4973 295.896 55.3008 288.699C48.1042 281.503 39.5607 275.794 30.158 271.899C20.7552 268.005 10.6774 266 0.5 266L0.500003 343.5H78Z" fill="white"/>
<path d="M79 0.499999C79 10.6774 76.9954 20.7552 73.1007 30.158C69.2059 39.5607 63.4973 48.1042 56.3008 55.3008C49.1042 62.4973 40.5607 68.2059 31.158 72.1007C21.7552 75.9954 11.6774 78 1.5 78L1.5 0.499999H79Z" fill="white"/>
<path d="M362.5 78C352.323 78 342.245 75.9954 332.842 72.1007C323.439 68.2059 314.896 62.4973 307.699 55.3008C300.503 48.1042 294.794 39.5607 290.899 30.158C287.005 20.7552 285 10.6774 285 0.499992L362.5 0.499999V78Z" fill="white"/>
</svg>
