<svg width="426" height="426" viewBox="0 0 426 426" fill="none" xmlns="http://www.w3.org/2000/svg">
<path d="M106.5 426C127.564 426 148.154 419.754 165.668 408.052C183.182 396.349 196.832 379.716 204.893 360.256C212.954 340.795 215.063 319.382 210.954 298.723C206.844 278.064 196.701 259.087 181.807 244.193C166.913 229.299 147.936 219.156 127.277 215.046C106.618 210.937 85.2046 213.046 65.7442 221.107C46.2839 229.168 29.6509 242.818 17.9485 260.332C6.24612 277.846 3.18053e-06 298.436 0 319.5L106.5 319.5L106.5 426Z" fill="white"/>
<path d="M106.5 0C127.564 2.51182e-07 148.154 6.24612 165.668 17.9485C183.182 29.6509 196.832 46.2839 204.893 65.7442C212.954 85.2046 215.063 106.618 210.954 127.277C206.844 147.936 196.701 166.913 181.807 181.807C166.913 196.701 147.936 206.844 127.277 210.954C106.618 215.063 85.2045 212.954 65.7441 204.893C46.2838 196.832 29.6508 183.182 17.9484 165.668C6.24608 148.154 -2.05902e-05 127.564 0 106.5L106.5 106.5V0Z" fill="white"/>
<path d="M426 106.5C426 127.564 419.754 148.154 408.052 165.668C396.349 183.182 379.716 196.832 360.256 204.893C340.795 212.954 319.382 215.063 298.723 210.954C278.064 206.844 259.087 196.701 244.193 181.807C229.299 166.913 219.156 147.936 215.046 127.277C210.937 106.618 213.046 85.2045 221.107 65.7442C229.168 46.2839 242.818 29.6509 260.332 17.9485C277.846 6.24612 298.436 -2.51182e-07 319.5 0V106.5H426Z" fill="white"/>
<path d="M319.5 426C298.436 426 277.846 419.754 260.332 408.052C242.818 396.349 229.168 379.716 221.107 360.256C213.046 340.795 210.937 319.382 215.046 298.723C219.156 278.064 229.299 259.087 244.193 244.193C259.087 229.299 278.064 219.156 298.723 215.046C319.382 210.937 340.795 213.046 360.256 221.107C379.716 229.168 396.349 242.818 408.052 260.332C419.754 277.846 426 298.436 426 319.5L319.5 319.5V426Z" fill="white"/>
<path d="M319 212.5C319 271.318 271.318 319 212.5 319C153.682 319 106 271.318 106 212.5C106 153.682 153.682 106 212.5 106C271.318 106 319 153.682 319 212.5Z" fill="white"/>
</svg>
